<svg width="44" height="44" viewBox="0 0 44 44" fill="none" xmlns="http://www.w3.org/2000/svg">
<path d="M0.425781 21.5156C0.425781 33.3979 10.0592 43.0313 21.9414 43.0313C33.8236 43.0313 43.4571 33.3979 43.4571 21.5156C43.4571 9.63342 33.8236 0 21.9414 0C10.0592 0 0.425781 9.63342 0.425781 21.5156ZM22.4224 12.0653C23.0715 12.7091 23.0757 13.7572 22.4317 14.4062L17.0197 19.8606H30.8373C31.7514 19.8606 32.4924 20.6016 32.4924 21.5156C32.4924 22.4297 31.7514 23.1707 30.8373 23.1707H17.0197L22.4317 28.6251C23.0756 29.2747 23.0709 30.3232 22.4214 30.967C21.7718 31.6108 20.7233 31.6062 20.0795 30.9567L11.8673 22.6814C11.227 22.0361 11.227 20.9951 11.8673 20.3499L20.0795 12.0746C20.3887 11.7623 20.8095 11.5858 21.249 11.584C21.6885 11.5823 22.1107 11.7554 22.4224 12.0653Z" fill="#89D991"/>
</svg>
