<svg width="38" height="44" viewBox="0 0 38 44" fill="none" xmlns="http://www.w3.org/2000/svg">
<path d="M8.42867 4.39555C8.84535 4.3209 9.29597 4.37248 9.72895 4.58828L29.7965 14.5888C31.4307 15.4032 31.3112 17.7744 29.6038 18.4218L26.6069 19.5551C25.2971 20.0505 24.8342 21.6671 25.6812 22.7814L31.5501 30.4922C32.2505 31.4124 32.0727 32.7249 31.1524 33.4253L28.8301 35.1938C28.5586 35.4001 28.2519 35.5304 27.937 35.5874C27.1878 35.7245 26.3897 35.4436 25.8956 34.7961L20.0267 27.0854C19.5218 26.4217 18.7224 26.1597 17.984 26.2941C17.4804 26.385 17.0054 26.6592 16.6715 27.118L14.7794 29.7036C14.4374 30.1732 13.9691 30.4406 13.4778 30.5302C12.4259 30.7202 11.2735 30.0918 11.0347 28.8689L6.7402 6.8631C6.49996 5.6334 7.35233 4.591 8.42867 4.39555ZM7.1976 0.679288C5.12366 1.05526 3.25196 2.27139 2.06162 4.01551C0.863128 5.76913 0.428795 7.88921 0.83734 9.98487L5.13181 31.9906C5.95704 36.2186 10.0805 39.0309 14.3234 38.2613C15.7417 38.0034 17.0434 37.3696 18.1089 36.4317L21.0745 40.3257C22.8852 42.7064 25.84 43.8533 28.784 43.3186C30.0042 43.0973 31.1714 42.5829 32.1609 41.8296L34.4832 40.0624C36.1649 38.7825 37.2467 36.9244 37.5317 34.8301C37.8154 32.7358 37.267 30.6564 35.9871 28.9747L33.0201 25.0779C35.0967 23.7111 36.4431 21.4187 36.5707 18.8683C36.7295 15.7276 35.0126 12.7917 32.1989 11.3897L12.1314 1.38779C10.5881 0.61821 8.882 0.373898 7.1976 0.679288Z" fill="#240D4B"/>
</svg>
