<svg width="44" height="44" viewBox="0 0 44 44" fill="none" xmlns="http://www.w3.org/2000/svg">
<path d="M43.4434 21.5156C43.4434 33.3979 33.81 43.0313 21.9277 43.0313C10.0455 43.0313 0.412109 33.3979 0.412109 21.5156C0.412109 9.63342 10.0455 0 21.9277 0C33.81 0 43.4434 9.63342 43.4434 21.5156ZM21.4467 12.0653C20.7977 12.7091 20.7935 13.7572 21.4374 14.4062L26.8494 19.8606H13.0319C12.1178 19.8606 11.3768 20.6016 11.3768 21.5156C11.3768 22.4297 12.1178 23.1707 13.0319 23.1707H26.8494L21.4374 28.6251C20.7936 29.2747 20.7982 30.3232 21.4478 30.967C22.0973 31.6108 23.1458 31.6062 23.7897 30.9567L32.0018 22.6814C32.6422 22.0361 32.6422 20.9951 32.0018 20.3499L23.7897 12.0746C23.4804 11.7623 23.0597 11.5858 22.6201 11.584C22.1806 11.5823 21.7585 11.7554 21.4467 12.0653Z" fill="#89D991"/>
</svg>
