<svg width="122" height="106" viewBox="0 0 122 106" fill="none" xmlns="http://www.w3.org/2000/svg">
<path d="M120.84 71.1215C119.784 69.9432 95.4342 43.2429 64.1529 41.4067C61.9164 41.2754 59.7094 41.1738 57.4762 41.4067C26.195 43.2429 1.84531 69.9432 0.789668 71.1215C-0.263223 72.2931 -0.263223 74.0728 0.789668 75.2444C1.84531 76.4227 26.195 103.123 57.4762 104.959C59.7154 105.091 61.9165 105.192 64.153 104.959C95.4343 103.123 119.784 76.4226 120.84 75.2444C121.892 74.0728 121.892 72.2931 120.84 71.1215ZM86.5833 73.1829C86.5833 87.392 75.0236 98.9516 60.8146 98.9516C46.6056 98.9516 35.0459 87.392 35.0459 73.1829C35.0459 58.9739 46.6056 47.4143 60.8146 47.4143C75.0236 47.4143 86.5833 58.9739 86.5833 73.1829ZM35.8426 53.3028C31.4851 58.7648 28.8614 65.6685 28.8614 73.1829C28.8614 80.6974 31.4851 87.6011 35.8426 93.0631C22.1505 86.8326 11.617 77.3424 7.40294 73.1829C11.617 69.0235 22.1505 59.5333 35.8426 53.3028ZM85.7865 93.0631C90.1441 87.6011 92.7678 80.6974 92.7678 73.1829C92.7678 65.6685 90.1441 58.7648 85.7865 53.3028C99.4787 59.5333 110.012 69.0235 114.226 73.1829C110.012 77.3424 99.4787 86.8326 85.7865 93.0631Z" fill="#AEE9B6"/>
<path d="M58.0361 88.3985C62.3553 89.1551 67.3207 87.9099 70.7514 85.0284C74.2624 82.0811 76.2756 77.7608 76.2756 73.1829C76.2756 71.4757 74.8905 70.0906 73.1833 70.0906C68.0678 70.0906 63.9066 65.9274 63.9066 60.8139C63.9066 59.1068 62.5215 57.7217 60.8143 57.7217C56.2344 57.7217 51.9181 59.7348 48.9688 63.2458C46.0235 66.7528 44.7934 71.3871 45.5967 75.961C46.6919 82.1898 51.8074 87.3074 58.0361 88.3985Z" fill="#AEE9B6"/>
<path d="M60.8144 22.6764C62.5216 22.6764 63.9066 21.2914 63.9066 19.5842V3.09224C63.9066 1.38508 62.5216 0 60.8144 0C59.1072 0 57.7222 1.38508 57.7222 3.09224V19.5842C57.7222 21.2914 59.1072 22.6764 60.8144 22.6764Z" fill="#AEE9B6"/>
<path d="M32.8896 29.0181C33.4933 29.6218 34.2841 29.9238 35.075 29.924C37.7441 29.9248 39.1526 26.5359 37.2622 24.6455L25.5999 12.9811C24.3919 11.7732 22.4351 11.7732 21.2272 12.9811C20.0193 14.189 20.0193 16.1459 21.2272 17.3538L32.8896 29.0181Z" fill="#AEE9B6"/>
<path d="M86.5533 29.8906C87.3474 29.8928 88.1473 29.6101 88.7393 29.0181L100.402 17.3538C101.61 16.1459 101.61 14.189 100.402 12.9811C99.1938 11.7732 97.237 11.7732 96.029 12.9811C96.029 12.9811 84.4069 24.6052 84.3668 24.6454C82.4417 26.5708 83.8647 29.8831 86.5533 29.8906Z" fill="#AEE9B6"/>
</svg>
