<svg width="121" height="103" viewBox="0 0 121 103" fill="none" xmlns="http://www.w3.org/2000/svg">
<path d="M95.3949 49.2188C95.3949 49.7211 95.1993 50.1958 94.8364 50.5587L71.1066 73.8697C70.7436 74.2327 70.2692 74.4283 69.7665 74.4283H69.7386C69.2359 74.4002 68.7336 74.2046 68.3988 73.8138L54.1888 58.7384C53.4628 57.9565 53.4909 56.7563 54.2726 56.0305L62.4242 48.3253C62.8151 47.9903 63.2619 47.7949 63.7922 47.8229C64.2945 47.8229 64.7972 48.0461 65.1322 48.409L70.1295 53.7134L84.2838 39.8383C85.0372 39.0845 86.2379 39.0845 86.9917 39.8383L94.8643 47.8508C95.2271 48.2134 95.4227 48.7161 95.3949 49.2188Z" fill="#AEE9B6"/>
<path d="M76.4424 23.1392V18.0788C76.4424 17.0238 75.587 16.1689 74.5327 16.1689C73.4782 16.1689 72.6228 17.0238 72.6228 18.0788V23.1392C72.6228 24.1942 73.4782 25.0492 74.5327 25.0492C75.587 25.0492 76.4424 24.1942 76.4424 23.1392Z" fill="#AEE9B6"/>
<path d="M72.6228 90.5552V95.6166C72.6228 96.6713 73.4782 97.5263 74.5325 97.5263C75.587 97.5263 76.4424 96.6713 76.4424 95.6166V90.5552C76.4424 89.5005 75.587 88.6455 74.5325 88.6455C73.4782 88.6455 72.6228 89.5005 72.6228 90.5552Z" fill="#AEE9B6"/>
<path d="M113.301 58.7571C114.356 58.7571 115.211 57.9024 115.211 56.8474C115.211 55.7921 114.356 54.9375 113.301 54.9375H108.241C107.187 54.9375 106.331 55.7921 106.331 56.8474C106.331 57.9024 107.187 58.7571 108.241 58.7571H113.301Z" fill="#AEE9B6"/>
<path d="M120.129 56.8401C120.129 81.9937 99.666 102.457 74.5404 102.457C60.4704 102.457 47.5442 96.1198 38.8343 85.1203H15.3278C14.2669 85.1203 13.4014 84.2827 13.4014 83.2218C13.4014 82.1611 14.2669 81.2958 15.3278 81.2958H43.5522C44.6132 81.2958 45.4783 82.1611 45.4783 83.2218C45.4783 84.1713 44.7246 84.9528 43.8037 85.0646C51.7039 93.7189 62.6756 98.6323 74.5404 98.6323C97.5723 98.6323 116.305 79.8719 116.305 56.8401C116.305 33.8082 97.5723 15.0759 74.5404 15.0759C62.7035 15.0759 51.7317 19.9614 43.8593 28.5598H55.5568C56.6174 28.5598 57.4829 29.4251 57.4829 30.4863C57.4829 31.5189 56.6174 32.3845 55.5568 32.3845H18.2309C17.1704 32.3845 16.3049 31.5189 16.3049 30.4863C16.3049 29.4251 17.1704 28.5598 18.2309 28.5598H38.8343C46.3998 18.984 57.2038 12.9541 69.1522 11.5582V3.8251H67.9519C66.891 3.8251 66.0538 2.95944 66.0538 1.92657C66.0538 0.865662 66.891 0 67.9519 0H81.129C82.1622 0 83.0275 0.865662 83.0275 1.92657C83.0275 2.95944 82.1622 3.8251 81.129 3.8251H79.9287V11.5862C84.4512 12.1445 88.7783 13.3167 92.7984 15.1037L95.9531 9.74345C97.4608 7.20291 100.755 6.33742 103.323 7.84492C104.97 8.79436 105.975 10.5809 105.975 12.4794C105.975 13.4285 105.724 14.3779 105.249 15.1873L102.067 20.6034C113.011 28.9228 120.129 42.0438 120.129 56.8401Z" fill="#AEE9B6"/>
<path d="M8.31816 49.967H38.2938C39.3484 49.967 40.2037 49.1124 40.2037 48.0573C40.2037 47.0021 39.3484 46.1475 38.2938 46.1475H8.31816C7.26382 46.1475 6.40845 47.0021 6.40845 48.0573C6.40845 49.1124 7.26382 49.967 8.31816 49.967Z" fill="#AEE9B6"/>
<path d="M2.77885 67.5471H33.6584C34.7127 67.5471 35.5681 66.6924 35.5681 65.6374C35.5681 64.5822 34.7127 63.7275 33.6584 63.7275H2.77885C1.72451 63.7275 0.869141 64.5822 0.869141 65.6374C0.869141 66.6924 1.72451 67.5471 2.77885 67.5471Z" fill="#AEE9B6"/>
</svg>
