<svg width="66" height="64" viewBox="0 0 66 64" fill="none" xmlns="http://www.w3.org/2000/svg">
<path d="M0 14C0 6.26801 6.26801 0 14 0H49C58.3888 0 66 7.61116 66 17V50C66 57.732 59.732 64 52 64H14C6.26801 64 0 57.732 0 50V14Z" fill="#240D4B"/>
<path d="M42.4721 36.7037L43.518 29.8901H36.9799V25.4685C36.9799 23.6048 37.8929 21.787 40.8214 21.787H43.7934V15.9864C43.7934 15.9864 41.0967 15.5264 38.5176 15.5264C33.1337 15.5264 29.6146 18.7902 29.6146 24.6978V29.8913H23.6294V36.7049H29.6146V53.177H36.9799V36.7049L42.4721 36.7037Z" fill="#AEE9B7"/>
</svg>
