<svg width="24" height="24" viewBox="0 0 24 24" fill="none" xmlns="http://www.w3.org/2000/svg">
<path d="M11.972 0.203125C8.80539 0.203125 8.41075 0.218416 7.17148 0.27084C5.92712 0.332003 5.08541 0.524955 4.34273 0.813292C3.56543 1.10674 2.86148 1.56618 2.27995 2.15959C1.68489 2.73976 1.22519 3.4441 0.933654 4.22236C0.645317 4.96505 0.452364 5.80676 0.391202 7.05112C0.335136 8.29111 0.323486 8.68503 0.323486 11.8516C0.323486 15.0182 0.338777 15.4129 0.391202 16.6521C0.452364 17.8929 0.645317 18.7382 0.933653 19.4809C1.2271 20.2582 1.68655 20.9622 2.27995 21.5437C2.86012 22.1387 3.56446 22.5984 4.34273 22.89C5.08541 23.1747 5.93076 23.3713 7.17148 23.4324C8.41148 23.4885 8.80539 23.5001 11.972 23.5001C15.1386 23.5001 15.5332 23.4849 16.7725 23.4324C18.0132 23.3713 18.8586 23.1739 19.6013 22.89C20.3786 22.5965 21.0825 22.1371 21.664 21.5437C22.2599 20.9641 22.7197 20.2596 23.0103 19.4809C23.295 18.7382 23.4916 17.8929 23.5528 16.6522C23.6089 15.4122 23.6205 15.0182 23.6205 11.8516C23.6205 8.68503 23.6052 8.29039 23.5528 7.05112C23.4916 5.8104 23.2943 4.96068 23.0103 4.22236C22.7169 3.44506 22.2575 2.74112 21.664 2.15959C21.0845 1.56376 20.38 1.10394 19.6013 0.813292C18.8586 0.524955 18.0132 0.332003 16.7725 0.27084C15.5325 0.214775 15.1386 0.203125 11.972 0.203125ZM11.972 2.30012C15.0818 2.30012 15.4532 2.31541 16.6822 2.36783C17.8159 2.42099 18.4334 2.6103 18.8433 2.77049C19.3501 2.95756 19.8088 3.25531 20.186 3.64205C20.572 4.01763 20.8687 4.47527 21.0539 4.98107C21.2141 5.391 21.4034 6.00845 21.4565 7.14214C21.509 8.37121 21.5242 8.74328 21.5242 11.8524C21.5242 14.9614 21.509 15.3335 21.4522 16.5626C21.391 17.6963 21.2017 18.3137 21.0422 18.7237C20.8216 19.2705 20.5755 19.6527 20.1692 20.0663C19.7908 20.4506 19.3324 20.747 18.8266 20.9342C18.4217 21.0944 17.7955 21.2837 16.6575 21.3369C15.4219 21.3893 15.0578 21.4046 11.94 21.4046C8.82214 21.4046 8.45881 21.3893 7.22173 21.3325C6.08804 21.2714 5.46258 21.0821 5.05265 20.9226C4.49927 20.702 4.11992 20.4559 3.71363 20.0496C3.3037 19.6396 3.04303 19.2494 2.84207 18.7069C2.67897 18.3021 2.49257 17.6759 2.43213 16.5378C2.39063 15.3168 2.37097 14.9382 2.37097 11.8349C2.37097 8.73309 2.39063 8.35374 2.43213 7.11738C2.49257 5.97933 2.67897 5.3546 2.84207 4.9483C3.04303 4.3942 3.30443 4.01558 3.71363 3.60565C4.1192 3.20008 4.49927 2.93796 5.05265 2.73263C5.46258 2.57317 6.07275 2.38386 7.21081 2.32706C8.44643 2.28265 8.81049 2.26663 11.9239 2.26663L11.972 2.30012ZM11.972 5.87302C8.6688 5.87181 5.99072 8.54989 5.99192 11.8531C5.99072 15.1563 8.66879 17.8344 11.972 17.8332C15.2752 17.8344 17.9533 15.1563 17.9521 11.8531C17.9533 8.54989 15.2752 5.87181 11.972 5.87302ZM11.972 15.7362C9.82549 15.7362 8.08892 13.9996 8.08892 11.8531C8.08892 9.70658 9.82549 7.97001 11.972 7.97001C14.1185 7.97001 15.8551 9.70658 15.8551 11.8531C15.8551 13.9996 14.1185 15.7362 11.972 15.7362ZM19.5911 5.63419C19.5903 6.40692 18.9636 7.03292 18.1909 7.03292C17.4192 7.03292 16.7936 6.40734 16.7936 5.63565C16.7936 4.86396 17.4192 4.23838 18.1909 4.23838C18.9605 4.23838 19.5911 4.86457 19.5911 5.63419Z" fill="#AEE9B6"/>
</svg>
