<svg width="18" height="19" viewBox="0 0 18 19" fill="none" xmlns="http://www.w3.org/2000/svg">
<path d="M9.09384 0.9375C6.67275 0.9375 6.37102 0.949191 5.42351 0.989273C4.47211 1.03604 3.82857 1.18356 3.26073 1.40402C2.66643 1.62838 2.12822 1.97965 1.6836 2.43336C1.22863 2.87694 0.87716 3.41545 0.65426 4.01049C0.433806 4.57833 0.28628 5.22188 0.239517 6.17328C0.196651 7.12134 0.187744 7.42252 0.187744 9.84361C0.187744 12.2647 0.199435 12.5664 0.239517 13.5139C0.28628 14.4626 0.433806 15.1089 0.654259 15.6767C0.878622 16.271 1.2299 16.8093 1.6836 17.2539C2.12718 17.7088 2.66569 18.0603 3.26073 18.2832C3.82857 18.5009 4.4749 18.6512 5.42351 18.698C6.37157 18.7408 6.67275 18.7497 9.09384 18.7497C11.5149 18.7497 11.8167 18.738 12.7642 18.698C13.7128 18.6512 14.3591 18.5003 14.927 18.2832C15.5212 18.0588 16.0595 17.7076 16.5041 17.2539C16.9596 16.8108 17.3112 16.2721 17.5334 15.6767C17.7511 15.1089 17.9014 14.4626 17.9482 13.5139C17.991 12.5659 17.9999 12.2647 17.9999 9.84361C17.9999 7.42252 17.9882 7.12079 17.9482 6.17328C17.9014 5.22466 17.7505 4.57499 17.5334 4.01049C17.3091 3.41619 16.9578 2.87798 16.5041 2.43336C16.061 1.9778 15.5223 1.62624 14.927 1.40402C14.3591 1.18356 13.7128 1.03604 12.7642 0.989273C11.8161 0.946407 11.5149 0.9375 9.09384 0.9375ZM9.09384 2.5408C11.4715 2.5408 11.7554 2.55249 12.6951 2.59257C13.5619 2.63321 14.034 2.77796 14.3474 2.90043C14.7349 3.04346 15.0856 3.27111 15.374 3.5668C15.6692 3.85396 15.896 4.20386 16.0376 4.59058C16.16 4.904 16.3048 5.37608 16.3454 6.24287C16.3855 7.18258 16.3972 7.46705 16.3972 9.84417C16.3972 12.2213 16.3855 12.5058 16.3421 13.4455C16.2953 14.3123 16.1506 14.7843 16.0287 15.0978C15.86 15.5158 15.6718 15.8081 15.3612 16.1243C15.0718 16.4182 14.7214 16.6447 14.3346 16.7879C14.0251 16.9104 13.5463 17.0551 12.6762 17.0958C11.7315 17.1358 11.4531 17.1475 9.06935 17.1475C6.68556 17.1475 6.40776 17.1358 5.46193 17.0924C4.59515 17.0457 4.11694 16.9009 3.80352 16.779C3.38042 16.6103 3.09038 16.4222 2.77974 16.1115C2.46632 15.7981 2.26702 15.4997 2.11337 15.085C1.98867 14.7754 1.84616 14.2967 1.79995 13.4265C1.76822 12.493 1.75319 12.2035 1.75319 9.83081C1.75319 7.45926 1.76822 7.16922 1.79995 6.22394C1.84616 5.35382 1.98867 4.87617 2.11337 4.56553C2.26702 4.14188 2.46688 3.85239 2.77974 3.53897C3.08983 3.22889 3.38042 3.02847 3.80352 2.87148C4.11694 2.74957 4.58345 2.60482 5.45358 2.5614C6.3983 2.52744 6.67665 2.51519 9.0571 2.51519L9.09384 2.5408ZM9.09384 5.27254C6.56831 5.27161 4.52073 7.31919 4.52166 9.84473C4.52073 12.3703 6.56831 14.4178 9.09384 14.4169C11.6194 14.4178 13.6669 12.3703 13.666 9.84473C13.6669 7.31919 11.6194 5.27161 9.09384 5.27254ZM9.09384 12.8136C7.45269 12.8136 6.12496 11.4859 6.12496 9.84473C6.12496 8.20357 7.45269 6.87584 9.09384 6.87584C10.735 6.87584 12.0627 8.20357 12.0627 9.84473C12.0627 11.4859 10.735 12.8136 9.09384 12.8136ZM14.9192 5.08994C14.9185 5.68074 14.4394 6.15936 13.8486 6.15936C13.2586 6.15936 12.7803 5.68106 12.7803 5.09105C12.7803 4.50104 13.2586 4.02274 13.8486 4.02274C14.4371 4.02274 14.9192 4.5015 14.9192 5.08994Z" fill="white"/>
</svg>
