<svg width="65" height="64" viewBox="0 0 65 64" fill="none" xmlns="http://www.w3.org/2000/svg">
<path d="M0 14C0 6.26801 6.26801 0 14 0H48C57.3888 0 65 7.61116 65 17V50C65 57.732 58.732 64 51 64H14C6.26801 64 0 57.732 0 50V14Z" fill="#240D4B"/>
<path d="M32.6027 13.3936C27.4858 13.3936 26.8481 13.4183 24.8456 13.503C22.8349 13.6018 21.4748 13.9136 20.2747 14.3795C19.0186 14.8537 17.8811 15.5961 16.9415 16.555C15.9799 17.4925 15.2371 18.6307 14.766 19.8883C14.3001 21.0884 13.9883 22.4485 13.8894 24.4593C13.7989 26.463 13.78 27.0996 13.78 32.2165C13.78 37.3335 13.8047 37.9712 13.8894 39.9738C13.9883 41.9787 14.3001 43.3447 14.766 44.5448C15.2402 45.8008 15.9826 46.9384 16.9415 47.878C17.8789 48.8396 19.0171 49.5824 20.2747 50.0535C21.4748 50.5136 22.8408 50.8313 24.8456 50.9301C26.8493 51.0207 27.4858 51.0395 32.6027 51.0395C37.7196 51.0395 38.3573 51.0148 40.3598 50.9301C42.3647 50.8313 43.7307 50.5124 44.9308 50.0535C46.1868 49.5794 47.3243 48.8369 48.264 47.878C49.2268 46.9416 49.9698 45.8031 50.4394 44.5448C50.8995 43.3447 51.2171 41.9787 51.316 39.9738C51.4066 37.97 51.4254 37.3335 51.4254 32.2165C51.4254 27.0996 51.4007 26.4619 51.316 24.4593C51.2171 22.4544 50.8983 21.0814 50.4394 19.8883C49.9652 18.6322 49.2228 17.4947 48.264 16.555C47.3275 15.5922 46.1891 14.8492 44.9308 14.3795C43.7307 13.9136 42.3647 13.6018 40.3598 13.503C38.3561 13.4124 37.7196 13.3936 32.6027 13.3936ZM32.6027 16.7821C37.6278 16.7821 38.2279 16.8068 40.2139 16.8915C42.0458 16.9774 43.0435 17.2833 43.7059 17.5422C44.5249 17.8445 45.2661 18.3256 45.8755 18.9506C46.4994 19.5575 46.9787 20.297 47.278 21.1143C47.5368 21.7767 47.8428 22.7745 47.9286 24.6064C48.0134 26.5925 48.0381 27.1937 48.0381 32.2177C48.0381 37.2417 48.0134 37.843 47.9216 39.829C47.8228 41.661 47.5168 42.6587 47.2592 43.3211C46.9027 44.2048 46.505 44.8225 45.8485 45.4908C45.2369 46.1118 44.4962 46.5906 43.6789 46.8932C43.0247 47.1521 42.0129 47.458 40.1739 47.5439C38.1773 47.6286 37.589 47.6533 32.5509 47.6533C27.5129 47.6533 26.9258 47.6286 24.9268 47.5368C23.0949 47.438 22.0842 47.1321 21.4218 46.8744C20.5276 46.5179 19.9146 46.1202 19.2581 45.4637C18.5957 44.8013 18.1745 44.1706 17.8498 43.2941C17.5862 42.6399 17.285 41.628 17.1874 39.789C17.1203 37.8159 17.0885 37.2041 17.0885 32.1895C17.0885 27.1772 17.1203 26.5642 17.1874 24.5664C17.285 22.7274 17.5862 21.7179 17.8498 21.0614C18.1745 20.166 18.5969 19.5542 19.2581 18.8917C19.9135 18.2364 20.5276 17.8128 21.4218 17.481C22.0842 17.2233 23.0702 16.9174 24.9092 16.8257C26.9058 16.7539 27.4941 16.728 32.5251 16.728L32.6027 16.7821ZM32.6027 22.5556C27.2651 22.5537 22.9376 26.8812 22.9396 32.2189C22.9376 37.5566 27.2651 41.8841 32.6027 41.8822C37.9403 41.8841 42.2678 37.5566 42.2658 32.2189C42.2678 26.8812 37.9403 22.5537 32.6027 22.5556ZM32.6027 38.4936C29.1342 38.4936 26.3281 35.6875 26.3281 32.2189C26.3281 28.7503 29.1342 25.9442 32.6027 25.9442C36.0712 25.9442 38.8773 28.7503 38.8773 32.2189C38.8773 35.6875 36.0712 38.4936 32.6027 38.4936ZM44.9143 22.1697C44.913 23.4184 43.9004 24.4299 42.6517 24.4299C41.4048 24.4299 40.3939 23.419 40.3939 22.172C40.3939 20.9251 41.4048 19.9142 42.6517 19.9142C43.8954 19.9142 44.9143 20.926 44.9143 22.1697Z" fill="#AEE9B7"/>
</svg>
