<svg width="52" height="48" viewBox="0 0 52 48" fill="none" xmlns="http://www.w3.org/2000/svg">
<path d="M36.1839 32.0896C32.7181 34.7207 29.221 36.7632 26.0335 38.0128C25.689 38.1486 25.3485 38.2753 25.0181 38.3902V46.5001L36.5448 34.9733L36.1839 32.0896Z" fill="#240D4B"/>
<path d="M19.9127 15.82L17.0304 15.4592L5.50391 26.986H13.6127C13.7277 26.6552 13.8546 26.3138 13.9915 25.9669C15.2401 22.7819 17.2822 19.2852 19.9127 15.82Z" fill="#240D4B"/>
<path d="M35.829 29.2536C37.6152 27.8273 39.369 26.2572 41.0504 24.576C44.9923 20.634 47.9874 15.4053 49.9523 9.0348C50.159 8.36571 50.3521 7.68969 50.5265 7.0248C51.2978 4.09853 51.6638 1.63194 51.8307 0.173828C50.3729 0.340689 47.9067 0.706359 44.9813 1.47768C44.3143 1.65257 43.6382 1.84572 42.9703 2.05202C36.5996 4.01491 31.3703 7.00946 27.4272 10.9528C25.7456 12.6344 24.1752 14.3884 22.7487 16.1748C22.5955 16.3664 22.4427 16.5583 22.293 16.7507C20.2856 19.3281 18.6223 21.9207 17.3931 24.3741C16.9677 25.2234 16.5935 26.0562 16.2762 26.8655C16.2099 27.0337 16.1464 27.1994 16.0859 27.3627L24.6404 35.9171C24.8031 35.857 24.9681 35.7939 25.1348 35.728C25.9462 35.4098 26.7811 35.0346 27.6324 34.608C30.0856 33.3786 32.6769 31.7158 35.2532 29.7091C35.4456 29.5596 35.6373 29.4066 35.829 29.2536ZM36.9476 15.0564C35.054 13.1629 35.054 10.082 36.9476 8.18844C38.8409 6.29492 41.9222 6.29492 43.8155 8.18844C45.709 10.082 45.709 13.1629 43.8155 15.0564C41.922 16.9499 38.8411 16.9499 36.9476 15.0564Z" fill="#240D4B"/>
<path d="M42.0796 9.9243C41.1434 8.98812 39.6199 8.98812 38.6836 9.9243C37.7474 10.8605 37.7474 12.3839 38.6837 13.3201C39.6199 14.2563 41.1432 14.2563 42.0796 13.3201C43.0157 12.3839 43.0157 10.8605 42.0796 9.9243Z" fill="#240D4B"/>
<rect x="15.0044" y="37.2537" width="3.29567" height="6.13462" transform="rotate(-45 15.0044 37.2537)" fill="#240D4B"/>
<rect x="0.847412" y="39.823" width="14.005" height="2.4553" transform="rotate(-45 0.847412 39.823)" fill="#240D4B"/>
<rect x="0.313477" y="40.4751" width="28.3838" height="2.4553" transform="rotate(-45 0.313477 40.4751)" fill="#240D4B"/>
<rect x="5.1228" y="45.8965" width="18.3494" height="2.45517" transform="rotate(-45.003 5.1228 45.8965)" fill="#240D4B"/>
</svg>
