<svg width="28" height="27" viewBox="0 0 28 27" fill="none" xmlns="http://www.w3.org/2000/svg">
<path d="M10.6767 9.4226H15.5494V11.8498C16.2514 10.4538 18.0514 9.19956 20.7554 9.19956C25.9391 9.19956 27.1698 11.9784 27.1698 17.0768V26.5192H21.9218V18.2379C21.9218 15.3345 21.2199 13.6971 19.433 13.6971C16.9546 13.6971 15.9247 15.4617 15.9247 18.2366V26.5192H10.6767V9.4226ZM1.67769 26.2962H6.92568V9.19956H1.67769V26.2962ZM7.67746 3.62489C7.67785 4.51342 7.32199 5.36503 6.68952 5.98911C6.05504 6.61969 5.19622 6.97265 4.30169 6.97048C3.40873 6.96988 2.55189 6.61782 1.91648 5.99042C1.28639 5.36431 0.93139 4.51316 0.929855 3.62489C0.929855 2.73667 1.28409 1.88649 1.91779 1.25936C2.55265 0.631119 3.40985 0.278904 4.303 0.279297C5.19778 0.279297 6.05583 0.632224 6.68952 1.25936C7.32191 1.88649 7.67746 2.73667 7.67746 3.62489Z" fill="#AEE9B6"/>
</svg>
