<svg width="21" height="21" viewBox="0 0 21 21" fill="none" xmlns="http://www.w3.org/2000/svg">
<path d="M7.45237 6.99071H11.1779V8.84647C11.7146 7.77916 13.0909 6.82018 15.1583 6.82018C19.1216 6.82018 20.0625 8.94478 20.0625 12.8429V20.0623H16.0501V13.7306C16.0501 11.5107 15.5134 10.2589 14.1471 10.2589C12.2523 10.2589 11.4648 11.608 11.4648 13.7296V20.0623H7.45237V6.99071ZM0.572018 19.8918H4.58447V6.82018H0.572018V19.8918ZM5.15926 2.55794C5.15956 3.23729 4.88748 3.8884 4.40391 4.36556C3.91881 4.84768 3.26218 5.11754 2.57824 5.11589C1.89552 5.11543 1.2404 4.84625 0.754585 4.36656C0.272837 3.88785 0.00141764 3.23709 0.000244141 2.55794C0.000244141 1.87883 0.271085 1.22882 0.755589 0.749327C1.24098 0.268993 1.89637 -0.000300156 2.57925 2.51067e-07C3.26337 2.51067e-07 3.91941 0.269838 4.40391 0.749327C4.88741 1.22882 5.15926 1.87883 5.15926 2.55794Z" fill="#AEE9B6"/>
</svg>
