<svg width="64" height="64" viewBox="0 0 64 64" fill="none" xmlns="http://www.w3.org/2000/svg">
<path d="M0 14C0 6.26801 6.26801 0 14 0H47C56.3888 0 64 7.61116 64 17V50C64 57.732 57.732 64 50 64H14C6.26801 64 0 57.732 0 50V14Z" fill="#240D4B"/>
<path d="M27.2532 26.2271H34.0924V29.6339C35.0776 27.6745 37.6042 25.914 41.3995 25.914C48.6752 25.914 50.4025 29.8144 50.4025 36.9705V50.2239H43.0366V38.6002C43.0366 34.525 42.0514 32.2268 39.5432 32.2268C36.0647 32.2268 34.6191 34.7036 34.6191 38.5984V50.2239H27.2532V26.2271ZM14.6224 49.9108H21.9884V25.914H14.6224V49.9108ZM23.0435 18.0894C23.0441 19.3366 22.5446 20.5319 21.6569 21.4078C20.7663 22.2929 19.5609 22.7883 18.3054 22.7853C17.052 22.7845 15.8494 22.2903 14.9576 21.4097C14.0732 20.5309 13.5749 19.3362 13.5728 18.0894C13.5728 16.8427 14.07 15.6494 14.9594 14.7692C15.8505 13.8874 17.0536 13.393 18.3072 13.3936C19.5631 13.3936 20.7674 13.8889 21.6569 14.7692C22.5445 15.6494 23.0435 16.8427 23.0435 18.0894Z" fill="#AEE9B7"/>
</svg>
