<svg width="21" height="21" viewBox="0 0 21 21" fill="none" xmlns="http://www.w3.org/2000/svg">
<path d="M7.63963 7.92821H11.3652V9.78397C11.9019 8.71666 13.2781 7.75768 15.3455 7.75768C19.3088 7.75768 20.2498 9.88228 20.2498 13.7804V20.9998H16.2373V14.6681C16.2373 12.4482 15.7006 11.1964 14.3344 11.1964C12.4395 11.1964 11.6521 12.5455 11.6521 14.6671V20.9998H7.63963V7.92821ZM0.759274 20.8293H4.77173V7.75768H0.759274V20.8293ZM5.34651 3.49544C5.34681 4.17479 5.07473 4.8259 4.59117 5.30306C4.10606 5.78518 3.44943 6.05504 2.7655 6.05339C2.08277 6.05293 1.42766 5.78375 0.941841 5.30406C0.460093 4.82535 0.188673 4.17459 0.1875 3.49544C0.1875 2.81633 0.458341 2.16632 0.942844 1.68683C1.42824 1.20649 2.08363 0.9372 2.7665 0.9375C3.45063 0.9375 4.10666 1.20734 4.59117 1.68683C5.07467 2.16632 5.34651 2.81633 5.34651 3.49544Z" fill="white"/>
</svg>
