<svg width="373" height="83" viewBox="0 0 373 83" fill="none" xmlns="http://www.w3.org/2000/svg">
<path d="M28.3204 45.2858C30.3537 45.2858 32.1764 44.7946 33.6482 44.0938V29.513H47.458V52.9266C42.3417 56.5721 36.0324 59.0264 28.0407 59.0264C12.9677 59.0264 0 48.44 0 31.5453C0 14.6515 13.108 3.99585 28.0407 3.99585C35.0508 3.99585 40.5892 5.74839 44.8643 8.20176V22.9239C40.3786 19.3486 34.6999 18.1565 30.2835 18.1565C20.8901 18.1565 15.422 24.3957 15.422 31.8961C15.422 39.537 20.82 45.2858 28.3204 45.2858Z" fill="white"/>
<path d="M52.5747 18.1565H64.4926L65.9644 23.7651H66.1047C68.6975 19.2083 72.9034 17.6663 76.4787 17.6663C77.7409 17.6663 78.7225 17.8057 79.704 18.0864V31.9663C78.4418 31.6866 77.1795 31.5462 75.9884 31.5462C71.5719 31.5462 67.5766 33.6487 67.5766 40.729V57.694H52.5747V18.1565Z" fill="white"/>
<path d="M80.6145 37.9952C80.6145 25.6573 89.4474 17.0349 101.154 17.0349C111.739 17.0349 120.362 24.046 120.362 37.2944C120.362 38.9768 120.222 40.5188 120.012 41.8512H95.1963C97.0882 45.636 101.434 47.3886 106.132 47.3886C110.408 47.3886 114.194 45.9869 117.699 44.4449V55.8715C113.632 57.8336 109.005 58.8152 104.028 58.8152C88.8869 58.8152 80.6145 49.9131 80.6145 37.9952ZM106.201 33.5788C106.132 30.8447 104.309 28.4615 101.084 28.4615C98.139 28.4615 95.6865 30.4236 94.6348 33.5788H106.201Z" fill="white"/>
<path d="M122.674 37.9952C122.674 25.6573 131.507 17.0349 143.214 17.0349C153.799 17.0349 162.422 24.046 162.422 37.2944C162.422 38.9768 162.282 40.5188 162.071 41.8512H137.256C139.148 45.636 143.494 47.3886 148.191 47.3886C152.468 47.3886 156.253 45.9869 159.758 44.4449V55.8715C155.692 57.8336 151.065 58.8152 146.088 58.8152C130.947 58.8152 122.674 49.9131 122.674 37.9952ZM148.261 33.5788C148.191 30.8447 146.369 28.4615 143.143 28.4615C140.2 28.4615 137.746 30.4236 136.695 33.5788H148.261Z" fill="white"/>
<path d="M205.392 31.0555V57.6935H190.391V34.9807C190.391 31.7563 188.989 30.3537 186.255 30.3537C183.38 30.3537 181.628 32.2466 181.628 34.7711V57.6935H166.626V18.1561H178.263L179.735 23.3435H180.016C182.399 19.6279 186.465 17.0342 191.722 17.0342C200.344 17.0342 205.392 22.1524 205.392 31.0555Z" fill="white"/>
<path d="M211.139 1.19214H226.141V57.6936H211.139V1.19214Z" fill="white"/>
<path d="M232.17 18.1562H247.172V57.6937H232.17V18.1562Z" fill="white"/>
<path d="M280.467 23.2737L281.87 18.1565H294.628V51.3144C294.628 65.055 285.235 73.536 270.373 73.536C264.765 73.536 259.368 71.994 255.232 69.3301V55.6606C259.017 58.6754 264.695 60.7789 268.761 60.7789C275.701 60.7789 279.626 57.343 279.626 52.7862V50.9644C277.664 53.8379 274.089 56.7825 268.691 56.7825C259.508 56.7825 251.376 48.6505 251.376 36.8739C251.376 25.5175 259.858 17.1047 268.9 17.1047C274.579 17.1047 278.295 20.3301 280.467 23.2737ZM273.177 43.7437C277.173 43.7437 279.837 40.5886 279.837 36.9441C279.837 33.439 277.173 30.1445 273.177 30.1445C269.181 30.1445 266.517 33.439 266.517 36.9441C266.517 40.5886 269.181 43.7437 273.177 43.7437Z" fill="white"/>
<path d="M315.588 21.2413H315.658C317.831 18.9274 321.477 17.0345 325.753 17.0345C334.095 17.0345 339.352 22.1527 339.352 31.0558V57.6938H324.35V34.981C324.35 31.7566 322.949 30.354 320.215 30.354C317.34 30.354 315.588 32.2469 315.588 34.7714V57.6938H300.586V1.19238H315.588V21.2413Z" fill="white"/>
<path d="M362.484 18.1566H372.509V30.3542H362.484V40.4484C362.484 44.4447 365.499 45.9165 369.425 45.9165C370.547 45.9165 371.738 45.7762 373 45.5666V58.0449C370.756 58.5352 368.863 58.8159 365.709 58.8159C353.791 58.8159 348.044 51.8057 348.044 41.3597V30.3542H342.646V18.1566H348.044V9.04297H362.484V18.1566Z" fill="white"/>
<path d="M33.1524 74.2387C33.1524 78.9705 29.7877 82.0622 24.8454 82.0622H21.0596V66.4153H24.8454C29.8934 66.4153 33.1524 69.5272 33.1524 74.2387ZM24.929 80.2328C28.5466 80.2328 31.1547 78.0668 31.1547 74.2599C31.1547 70.3895 28.5466 68.2447 24.9502 68.2447H23.0159V80.2328H24.929Z" fill="white"/>
<path d="M59.5862 82.062H61.5425V66.4141H59.5862V82.062Z" fill="white"/>
<path d="M95.6956 80.5062C96.9781 80.5062 97.8414 80.2754 98.7662 79.8121V73.6085H100.638V81.032C99.1652 81.8732 97.6308 82.3779 95.6745 82.3779C91.5522 82.3779 87.9558 79.1814 87.9558 74.2603C87.9558 69.318 91.4888 66.0994 95.7168 66.0994C97.378 66.0994 98.9767 66.5204 100.217 67.2347V69.318C98.8296 68.4547 97.378 68.0134 95.8004 68.0134C92.5405 68.0134 89.9535 70.5581 89.9535 74.2603C89.9535 77.9615 92.4992 80.5062 95.6956 80.5062Z" fill="white"/>
<path d="M127.365 82.062H129.322V66.4141H127.365V82.062Z" fill="white"/>
<path d="M155.062 66.415V68.2445H160.005V82.062H161.96V68.2445H166.883V66.415H155.062Z" fill="white"/>
<path d="M195.377 66.415L189.236 82.062H191.297L193.127 77.3091H199.836L201.666 82.062H203.768L197.585 66.415H195.377ZM196.471 68.6021L199.183 75.5642H193.758L196.471 68.6021Z" fill="white"/>
<path d="M229.277 66.415V82.062H238.131V80.2335H231.232V66.415H229.277Z" fill="white"/>
<path d="M239.671 0C243.947 0 247.452 3.4349 247.452 7.71195C247.452 11.988 243.947 15.422 239.671 15.422C235.323 15.422 231.888 11.988 231.888 7.71195C231.888 3.4349 235.323 0 239.671 0Z" fill="#ADEAB5"/>
</svg>
