<svg width="17" height="17" viewBox="0 0 17 17" fill="none" xmlns="http://www.w3.org/2000/svg">
<path d="M3.81833 7.14083C5.13833 9.735 7.265 11.8525 9.85917 13.1817L11.8758 11.165C12.1233 10.9175 12.49 10.835 12.8108 10.945C13.8375 11.2842 14.9467 11.4675 16.0833 11.4675C16.5875 11.4675 17 11.88 17 12.3842V15.5833C17 16.0875 16.5875 16.5 16.0833 16.5C7.47583 16.5 0.5 9.52417 0.5 0.916667C0.5 0.4125 0.9125 0 1.41667 0H4.625C5.12917 0 5.54167 0.4125 5.54167 0.916667C5.54167 2.0625 5.725 3.1625 6.06417 4.18917C6.165 4.51 6.09167 4.8675 5.835 5.12417L3.81833 7.14083Z" fill="#AEE9B6"/>
</svg>
