<svg width="22" height="22" viewBox="0 0 22 22" fill="none" xmlns="http://www.w3.org/2000/svg">
<path d="M4.34013 9.33966C6.0666 12.7326 8.84812 15.5022 12.2411 17.2406L14.8787 14.603C15.2025 14.2792 15.682 14.1713 16.1017 14.3152C17.4445 14.7588 18.8952 14.9986 20.3818 14.9986C21.0413 14.9986 21.5808 15.5381 21.5808 16.1975V20.3818C21.5808 21.0412 21.0413 21.5807 20.3818 21.5807C9.12387 21.5807 0 12.4569 0 1.19893C0 0.539518 0.53952 0 1.19893 0H5.39519C6.05461 0 6.59413 0.539518 6.59413 1.19893C6.59413 2.69759 6.83391 4.13631 7.27752 5.47911C7.4094 5.89873 7.31349 6.36631 6.97778 6.70201L4.34013 9.33966Z" fill="#AEE9B6"/>
</svg>
