<svg width="48" height="48" viewBox="0 0 48 48" fill="none" xmlns="http://www.w3.org/2000/svg">
<path d="M46.1091 19.5986L40.1935 18.996C39.98 18.9742 39.8039 18.8291 39.734 18.6265C39.5045 17.9572 39.2299 17.3092 38.9203 16.6817C38.8247 16.4884 38.848 16.2609 38.9843 16.0936L42.7461 11.4792C43.3486 10.7403 43.294 9.66542 42.6199 8.99092L39.0088 5.38025C38.3347 4.70611 37.2598 4.65184 36.5209 5.25404L31.9065 9.0158C31.7393 9.15214 31.5117 9.17541 31.318 9.07977C30.6905 8.76981 30.0429 8.49566 29.3736 8.26615C29.171 8.1962 29.0259 8.0201 29.0041 7.80665L28.4016 1.89103C28.3051 0.942313 27.5068 0.221191 26.5532 0.221191H21.4468C20.4937 0.221191 19.6949 0.942313 19.5981 1.8906L18.9959 7.80665C18.9742 8.0201 18.8291 8.1962 18.6261 8.26615C17.9568 8.49566 17.3092 8.76981 16.6817 9.07977C16.4879 9.17541 16.2604 9.15214 16.0932 9.0158L11.4788 5.25404C10.7399 4.65184 9.665 4.70611 8.99086 5.38025L5.38019 8.99092C4.70606 9.66542 4.65178 10.7403 5.25398 11.4792L9.01575 16.0936C9.15202 16.2612 9.17536 16.4884 9.07971 16.6821C8.76975 17.3092 8.49597 17.9572 8.2661 18.6261C8.19651 18.8291 8.02004 18.9742 7.80659 18.996L1.89097 19.5981C0.942257 19.695 0.220703 20.4937 0.220703 21.4473V26.5533C0.220703 27.5068 0.942257 28.3055 1.89097 28.4021L7.80659 29.0042C8.02004 29.0259 8.19651 29.171 8.2661 29.374C8.49597 30.0429 8.76975 30.6909 9.07971 31.318C9.17536 31.5118 9.15202 31.7389 9.01575 31.9066L5.25398 36.521C4.65141 37.2598 4.70606 38.3348 5.38019 39.0089L8.99086 42.6199C9.665 43.2941 10.7399 43.3483 11.4788 42.7461L16.0935 38.9843C16.2608 38.848 16.4883 38.8248 16.6821 38.9204C17.3092 39.2304 17.9572 39.5041 18.6261 39.734C18.8291 39.8036 18.9742 39.9796 18.9959 40.1935L19.5981 46.1096C19.6949 47.0579 20.4937 47.779 21.4468 47.779H26.5532C27.5068 47.779 28.3051 47.0579 28.4016 46.1091L29.0041 40.1935C29.0259 39.9801 29.171 39.804 29.3736 39.734C30.0429 39.5041 30.6905 39.2304 31.318 38.9204C31.5117 38.8248 31.7393 38.848 31.9065 38.9843L36.5209 42.7461C37.2598 43.3483 38.3347 43.2941 39.0088 42.6199L42.6199 39.0093C43.294 38.3351 43.3486 37.2598 42.7461 36.521L38.9843 31.9066C38.848 31.7393 38.8247 31.5118 38.9203 31.3185C39.2299 30.6909 39.5045 30.0429 39.734 29.374C39.8039 29.171 39.98 29.0259 40.1935 29.0042L46.1087 28.4021C47.0574 28.3055 47.7789 27.5064 47.7789 26.5533V21.4469C47.7789 20.4937 47.0574 19.695 46.1091 19.5986ZM33.9482 29.0094L30.4666 25.5282C30.6406 24.9638 30.7311 24.3508 30.7311 23.7302C30.7311 22.0543 30.0795 20.4676 28.8892 19.2561C27.028 17.4149 24.1783 16.9121 21.8066 18.0031C21.6225 18.0875 21.4918 18.2563 21.4557 18.4557C21.4203 18.6535 21.4838 18.8577 21.6265 19.0004L24.0448 21.4195C24.3994 21.7677 24.5948 22.2332 24.5948 22.732C24.5948 23.2293 24.3994 23.6952 24.0408 24.0481C23.3229 24.7681 22.1423 24.7649 21.4062 24.0469L18.9951 21.6165C18.8524 21.473 18.6494 21.4139 18.4472 21.4436C18.247 21.4802 18.077 21.6129 17.9937 21.799C17.6195 22.6271 17.4306 23.5123 17.4306 24.428C17.4306 26.1091 18.1023 27.7339 19.2677 28.8784C20.8877 30.5173 23.3028 31.1207 25.5157 30.4698L28.999 33.9535C27.4939 34.7108 25.7999 35.1474 23.9998 35.1474C17.8434 35.1474 12.8523 30.1567 12.8523 24.0003C12.8523 17.8434 17.8434 12.8528 23.9998 12.8528C30.1562 12.8528 35.1474 17.8434 35.1474 24.0003C35.1474 25.804 34.7088 27.502 33.9482 29.0094Z" fill="#240D4B"/>
</svg>
