<svg width="263" height="83" viewBox="0 0 263 83" fill="none" xmlns="http://www.w3.org/2000/svg">
<path d="M22.8203 64.9403C21.3419 65.8119 19.8497 66.7245 18.3437 67.678C16.8324 68.5933 15.3842 69.402 13.9991 70.1043C12.6523 70.8012 11.4372 71.3234 10.3537 71.6709C9.22649 71.9855 8.32698 71.9752 7.65514 71.6401C7.64437 71.5636 7.63899 71.5253 7.63899 71.5253C7.59532 71.4924 7.5681 71.4376 7.55734 71.361C7.15353 70.9883 7.40066 70.524 8.29872 69.9683C9.19679 69.4126 10.4341 68.7701 12.0106 68.0409C13.6254 67.3064 15.4428 66.4848 17.4626 65.5762C19.4825 64.6676 21.4097 63.6548 23.2441 62.538C23.5289 62.3418 23.7754 62.1509 23.9836 61.9655C24.2247 61.7364 24.4359 61.4334 24.6172 61.0565C27.0461 55.8343 29.4585 50.6339 31.8544 45.4554C34.2504 40.2769 36.6601 35.0574 39.0835 29.7969C39.1715 29.5893 39.2403 29.3844 39.29 29.1822C39.378 28.9746 39.4797 28.726 39.5952 28.4365C39.0208 28.5172 38.4821 28.5734 37.9789 28.6051C37.5141 28.6313 37.0381 28.7178 36.5511 28.8643C34.0179 29.4546 31.5694 30.0916 29.2056 30.7752C26.8746 31.4152 24.5407 32.1727 22.2037 33.0478C22.023 33.1513 21.8067 33.2793 21.5548 33.4318C21.2976 33.5461 21.0463 33.4252 20.801 33.0692C20.6922 32.8502 20.7066 32.5358 20.8442 32.126C21.0147 31.6725 21.3052 31.3779 21.7157 31.2421C24.5295 29.8705 27.4381 28.8956 30.4415 28.3173C33.4449 27.739 36.4783 27.2346 39.5415 26.8041C39.8861 26.7556 40.1461 26.6605 40.3214 26.5188C40.5296 26.3333 40.7106 26.0931 40.8644 25.7982C41.1007 25.2573 41.3233 24.7575 41.5322 24.2986C41.7356 23.8015 41.9801 23.3181 42.2655 22.8485C42.5072 22.3459 42.8336 21.8901 43.2447 21.4809C43.3105 21.3935 43.4008 21.3418 43.5157 21.3256C43.6689 21.3041 43.77 21.329 43.819 21.4002C43.9064 21.466 43.98 21.5728 44.0398 21.7206C44.0996 21.8683 44.1184 22.0023 44.0963 22.1226C44.101 22.4343 43.9882 22.743 43.7579 23.0487C43.5269 23.6278 43.3124 24.1851 43.1143 24.7206C42.9162 25.256 42.6825 25.816 42.4133 26.4005C43.3813 26.3425 44.311 26.2899 45.2025 26.2427C46.0939 26.1956 46.9907 26.1867 47.8929 26.216C49.9271 26.2425 51.9501 26.3292 53.9621 26.4759C56.0071 26.579 58.0188 26.8624 59.9972 27.3263C60.8444 27.5196 61.6586 27.7566 62.44 28.0372C63.2213 28.3179 63.9832 28.7379 64.7256 29.2974C65.73 30.0543 66.3842 30.958 66.688 32.0086C66.9865 33.021 66.9074 34.1254 66.4508 35.3219C66.1426 36.1852 65.7061 36.9689 65.1413 37.673C64.6147 38.3718 64.0637 39.0349 63.4881 39.6625C62.1945 41.0157 60.8465 42.2594 59.444 43.3936C58.0415 44.5278 56.59 45.5909 55.0894 46.5827C52.9481 48.016 50.7986 49.3919 48.6411 50.7103C46.4836 52.0287 44.2878 53.3525 42.0537 54.6817C39.5241 56.1306 36.9864 57.5219 34.4406 58.8559C31.9277 60.1462 29.4011 61.4774 26.8607 62.8497C26.3515 63.1165 25.9434 63.4081 25.6365 63.7246C25.3678 64.0357 25.11 64.4233 24.8628 64.8876C24.5385 65.636 24.1866 66.4664 23.8073 67.3787C23.4608 68.2474 23.0844 69.0422 22.6781 69.7631C22.069 70.7077 21.6438 71.2946 21.4027 71.5237C21.1616 71.7528 21.0057 71.7552 20.9352 71.5308C20.9029 71.3011 20.9639 70.9021 21.1183 70.3337C21.2727 69.7654 21.4409 69.156 21.6228 68.5057C21.8377 67.8117 22.0579 67.156 22.2835 66.5386C22.5037 65.8829 22.6827 65.3502 22.8203 64.9403ZM27.1373 60.2337C27.2354 60.3761 27.2844 60.4473 27.2844 60.4473C27.5471 60.3714 27.7469 60.2652 27.8839 60.1288C28.6175 59.7914 29.3483 59.4349 30.0764 59.0593C30.8046 58.6836 31.5327 58.3079 32.2608 57.9323C35.7813 56.0318 39.2224 54.123 42.5843 52.2058C45.9845 50.2832 49.3632 48.2074 52.7203 45.9785C54.4345 44.8396 56.0831 43.6512 57.6663 42.4135C59.2877 41.1704 60.8084 39.7658 62.2282 38.1996C62.6668 37.7084 63.0644 37.2035 63.421 36.6848C63.8159 36.1608 64.1672 35.6038 64.4747 35.0139C65.0402 34.0364 65.1898 33.1563 64.9237 32.3738C64.6958 31.5858 64.0984 30.9474 63.1317 30.4585C62.5418 30.1509 61.919 29.8871 61.2633 29.6668C60.6076 29.4466 59.9354 29.2482 59.2468 29.0717C56.481 28.5623 53.7038 28.2498 50.9153 28.1341C48.1596 27.9747 45.3707 27.9957 42.5486 28.1971C41.8157 28.2611 41.3556 28.5991 41.1683 29.2111C40.5304 30.7845 39.8707 32.3415 39.1891 33.882C38.5404 35.3788 37.87 36.8592 37.1776 38.3232C35.6553 41.6608 34.1139 45.0012 32.5533 48.3443C31.0256 51.6437 29.4979 54.943 27.9702 58.2424C27.8218 58.5757 27.6734 58.9089 27.525 59.2421C27.4149 59.57 27.2857 59.9005 27.1373 60.2337ZM86.3466 40.5498C85.9846 41.0302 85.3956 41.562 84.5795 42.1453C83.8017 42.7232 82.9859 43.1697 82.1321 43.4849C81.3166 43.7948 80.5673 43.8806 79.884 43.7423C79.2008 43.6041 78.7893 43.0371 78.6493 42.0416C78.6063 41.7353 78.5824 41.4263 78.5776 41.1146C78.5675 40.7646 78.5738 40.3927 78.5966 39.9991C77.6871 40.7516 76.7968 41.5015 75.9257 42.2487C75.0874 42.9522 74.2082 43.6419 73.288 44.3179C73.0851 44.5416 72.8332 44.6942 72.5323 44.7755C72.2696 44.8515 72.007 44.9275 71.7443 45.0034C70.9181 45.2367 70.2896 45.0712 69.8589 44.507C69.4282 43.9428 69.3968 43.3029 69.7648 42.5874C69.924 42.3307 70.0667 42.0959 70.193 41.883C70.3192 41.67 70.4838 41.4516 70.6866 41.2279C71.5584 40.2073 72.5582 39.403 73.686 38.815C74.8138 38.2269 76.075 37.8935 77.4696 37.8147C77.9781 37.8213 78.3586 37.6116 78.6112 37.1857C78.8415 36.88 79.0527 36.5769 79.2448 36.2766C79.4752 35.9709 79.7055 35.6652 79.9359 35.3595C79.9963 35.2339 80.0759 35.1056 80.1746 34.9745C80.2734 34.8435 80.3775 34.7508 80.487 34.6964C80.5965 34.6419 80.7278 34.604 80.8809 34.5824C81.0724 34.5555 81.2309 34.5723 81.3566 34.6327C81.5857 34.8738 81.7026 35.1503 81.7074 35.462C81.7122 35.7737 81.6128 36.1781 81.4093 36.6753C81.3268 36.9211 81.1643 37.4321 80.9219 38.208C80.6742 38.9457 80.503 39.6726 80.4084 40.3887C80.3521 41.0994 80.4328 41.6738 80.6506 42.1118C80.8629 42.5114 81.3906 42.5154 82.2336 42.1236C82.677 41.9441 83.1478 41.6827 83.6462 41.3393C84.1392 40.9577 84.635 40.5952 85.1333 40.2518C85.2757 40.1537 85.4181 40.0556 85.5605 39.9575C85.6976 39.8211 85.8645 39.7586 86.0613 39.7699C86.2635 39.8196 86.4164 39.9348 86.5199 40.1155C86.6563 40.2525 86.5985 40.3973 86.3466 40.5498ZM71.3379 43.362C72.4215 43.0145 73.5301 42.4292 74.6639 41.606C75.7924 40.7446 76.6857 39.8772 77.3438 39.0037C76.2059 39.2417 75.0482 39.7559 73.8707 40.5461C72.6932 41.3363 71.849 42.275 71.3379 43.362ZM96.3635 42.3634C97.3052 41.8406 98.3813 41.1622 99.5917 40.3283C100.797 39.4561 101.859 38.682 102.78 38.0061C103.354 37.6519 103.817 37.4698 104.167 37.4596C104.55 37.4058 104.793 37.4693 104.897 37.65C104.995 37.7924 104.95 38.0329 104.764 38.3715C104.61 38.6664 104.265 38.9883 103.728 39.337C102.616 40.0399 101.485 40.7455 100.336 41.4537C99.2185 42.1183 98.0823 42.7856 96.927 43.4556C96.133 43.9186 95.3535 44.0672 94.5883 43.9014C93.8506 43.6537 93.4911 43.0404 93.5097 42.0616C93.5325 41.668 93.6016 41.3263 93.7171 41.0368C93.8272 40.7089 93.8963 40.3673 93.9245 40.012C94.0185 39.5692 94.0987 39.1675 94.1651 38.8067C94.2698 38.4406 94.2896 38.1645 94.2244 37.9784C94.1921 37.7487 94.0393 37.6335 93.7658 37.6329C93.5307 37.6269 93.1203 37.7627 92.5346 38.0402C91.932 38.4763 91.3322 38.9315 90.7351 39.4059C90.1709 39.8366 89.6094 40.2865 89.0505 40.7555C88.5354 41.2574 88.0202 41.7593 87.5051 42.2613C87.0282 42.7578 86.513 43.2597 85.9596 43.767C85.8938 43.8543 85.8306 43.9608 85.7702 44.0865C85.6661 44.1792 85.5428 44.2746 85.4004 44.3727C85.2197 44.4762 85.0391 44.5797 84.8584 44.6832C84.6394 44.792 84.3989 44.7478 84.1369 44.5503C83.9185 44.3858 83.815 44.2051 83.8264 44.0082C83.7941 43.7785 83.8411 43.5571 83.9673 43.3442C84.2091 42.8416 84.4508 42.3391 84.6926 41.8365C84.896 41.3394 85.1186 40.8395 85.3604 40.337C85.6733 39.7854 85.9671 39.2365 86.2418 38.6903C86.5164 38.1441 86.7884 37.5788 87.0577 36.9943C87.2168 36.7376 87.3186 36.489 87.3629 36.2485C87.9008 35.3529 88.3444 35.0368 88.6938 35.3001C89.0707 35.4814 89.0339 36.0527 88.5833 37.0141C88.3745 37.473 88.1848 37.9292 88.0142 38.3826C87.8383 38.7978 87.6241 39.2184 87.3716 39.6444C87.2782 39.8137 87.1026 40.0922 86.8447 40.4798C86.5868 40.8675 86.3645 41.2306 86.1778 41.5692C85.9858 41.8696 85.8951 42.058 85.9059 42.1346C85.8783 42.2166 86.0647 42.0146 86.465 41.5289C87.2105 40.7213 87.9997 39.9466 88.8326 39.2048C89.6984 38.4193 90.5776 37.7295 91.4703 37.1355C91.8263 36.8903 92.2233 36.6588 92.6612 36.441C93.1321 36.1796 93.5617 36.0411 93.95 36.0256C94.3711 35.9664 94.7346 36.052 95.0403 36.2824C95.3843 36.5073 95.6376 36.9208 95.8003 37.5227C95.963 38.1245 95.9288 38.715 95.6979 39.2942C95.4615 39.835 95.2497 40.4114 95.0623 41.0234C94.8966 41.7886 94.8926 42.3163 95.0505 42.6065C95.2031 42.8584 95.6407 42.7773 96.3635 42.3634ZM112 37.5887C111.222 38.1666 110.423 38.728 109.601 39.273C108.818 39.8126 107.964 40.2645 107.039 40.6288C106.738 40.7101 106.437 40.7915 106.136 40.8728C105.83 40.9159 105.518 40.9206 105.201 40.8871C104.654 40.8858 104.236 40.6908 103.947 40.3019C103.62 39.9183 103.46 39.4723 103.466 38.9638C103.423 38.6575 103.416 38.3266 103.444 37.9712C103.434 37.6212 103.506 37.2988 103.66 37.0038C103.984 36.2554 104.259 35.4358 104.485 34.545C104.75 33.6488 105.085 32.8402 105.492 32.1193C105.651 31.8627 105.864 31.7155 106.132 31.6778C106.395 31.6019 106.635 31.6462 106.854 31.8107C107.105 31.9316 107.274 32.1616 107.361 32.5009C107.442 32.8018 107.357 33.1653 107.104 33.5912C106.807 34.2577 106.508 34.905 106.206 35.5332C105.903 36.1613 105.607 36.8278 105.315 37.5325C105.045 38.3905 104.956 39.0082 105.049 39.3857C105.174 39.7195 105.395 39.9032 105.712 39.9368C106.067 39.9649 106.483 39.8674 106.959 39.6443C107.435 39.4212 107.904 39.1406 108.364 38.8026C108.862 38.4593 109.322 38.1213 109.744 37.7887C110.16 37.4178 110.448 37.104 110.607 36.8474C110.931 36.3723 111.246 36.1133 111.552 36.0703C111.853 35.9889 112.075 36.0359 112.216 36.2112C112.391 36.3428 112.481 36.5645 112.486 36.8762C112.485 37.1496 112.323 37.3871 112 37.5887ZM109.096 26.9271C109.402 26.8841 109.646 26.9475 109.826 27.1175C110.044 27.282 110.134 27.5037 110.095 27.7825C110.061 28.0996 109.896 28.4546 109.6 28.8477C109.304 29.2407 108.981 29.579 108.63 29.8626C108.137 30.2442 107.77 30.4129 107.53 30.3686C107.328 30.3189 107.252 29.9196 107.303 29.1705C107.315 28.7003 107.444 28.2331 107.691 27.7688C107.977 27.2992 108.445 27.0186 109.096 26.9271ZM122.937 34.646C123.117 34.5425 123.282 34.4609 123.429 34.4011C123.572 34.3029 123.733 34.2022 123.914 34.0987C124.363 33.9575 124.707 34.0458 124.947 34.3635C125.203 34.7961 125.134 35.1377 124.74 35.3883C123.425 36.315 122.029 37.0773 120.551 37.6755C119.073 38.2737 117.574 38.7187 116.053 39.0105C115.522 39.1241 114.948 39.2048 114.33 39.2527C113.75 39.2951 113.195 39.2364 112.665 39.0766C112.174 38.9115 111.783 38.6344 111.494 38.2455C111.2 37.8183 111.095 37.2084 111.179 36.4156C111.339 35.6122 111.513 35.0411 111.699 34.7025C111.886 34.3639 112.281 33.9766 112.883 33.5405C113.529 33.1373 114.208 32.8271 114.919 32.61C115.664 32.3492 116.38 32.1704 117.07 32.0735C117.731 32.0586 118.16 32.3303 118.356 32.8885C118.557 33.485 118.411 33.9741 117.917 34.3557C117.567 34.6393 117.194 34.9064 116.8 35.157C116.4 35.3694 115.982 35.5844 115.544 35.8022C115.21 35.9272 114.854 36.0357 114.477 36.1278C114.099 36.22 113.719 36.2929 113.336 36.3467C112.762 36.4274 112.455 36.6072 112.416 36.886C112.41 37.1211 112.56 37.3539 112.866 37.5842C113.302 37.9133 114.002 38.0297 114.965 37.9335C115.922 37.799 116.926 37.5798 117.976 37.2759C119.06 36.9284 120.056 36.5151 120.965 36.0359C121.912 35.5514 122.569 35.0881 122.937 34.646ZM116.902 33.7957C117.121 33.4134 117.097 33.2411 116.829 33.2787C116.594 33.2727 116.238 33.3813 115.762 33.6044C115.324 33.8221 114.82 34.1272 114.251 34.5197C113.681 34.9121 113.188 35.2937 112.772 35.6646C113.357 35.6605 114.093 35.479 114.979 35.1201C115.861 34.7229 116.501 34.2814 116.902 33.7957ZM125.904 42.8973C126.952 41.4615 127.989 39.9492 129.015 38.3602C130.08 36.7659 131.04 35.401 131.895 34.2655C132.746 33.0918 133.34 32.5982 133.679 32.7849C134.017 32.9716 133.78 33.7859 132.968 35.2276C132.188 36.6258 131.299 37.9416 130.301 39.1752C129.336 40.3651 128.373 41.5741 127.414 42.8023C127.15 43.1517 126.863 43.4655 126.55 43.7436C126.238 44.0218 125.945 44.2973 125.671 44.5701C125.528 44.6682 125.37 44.7881 125.194 44.9299C125.014 45.0334 124.833 45.1369 124.652 45.2404C123.952 45.5341 123.366 45.5382 122.897 45.2528C122.427 44.9674 122.103 44.4663 121.924 43.7495C121.761 43.1476 121.735 42.5461 121.846 41.9448C121.943 40.4084 122.203 38.9271 122.627 37.5009C123.013 36.08 123.457 34.651 123.958 33.214C124.112 32.6456 124.313 32.1293 124.56 31.6651C124.703 31.2936 124.81 30.9466 124.882 30.6241C124.949 30.2634 124.807 29.9513 124.458 29.6881C124.54 29.4422 124.615 29.2756 124.68 29.1882C125.365 28.7797 125.856 28.2421 126.152 27.5757C126.487 26.9038 126.825 26.2511 127.166 25.6176C128.055 23.8916 128.948 22.1848 129.843 20.4971C130.733 18.7712 131.754 17.1439 132.905 15.6154C133.3 15.0914 133.736 14.5811 134.213 14.0845C134.367 13.7896 134.679 13.5114 135.15 13.25C135.402 13.0975 135.659 12.9832 135.922 12.9073C136.185 12.8313 136.463 12.8702 136.758 13.024C137.059 13.2161 137.23 13.4653 137.273 13.7716C137.349 14.0342 137.33 14.3103 137.214 14.5999C137.082 15.048 136.93 15.4988 136.76 15.9523C136.622 16.3621 136.446 16.7773 136.232 17.1978C135.233 18.9782 134.124 20.6764 132.907 22.2922C131.684 23.8698 130.401 25.4363 129.057 26.9917C128.657 27.4775 128.279 27.9797 127.922 28.4984C127.565 29.0171 127.233 29.5713 126.926 30.1612C126.354 31.6473 125.801 33.1307 125.267 34.6114C124.728 36.0538 124.273 37.5429 123.903 39.0786C123.82 39.5979 123.756 40.1145 123.711 40.6285C123.628 41.1478 123.564 41.6644 123.519 42.1783C123.419 42.8561 123.464 43.3183 123.655 43.5648C123.808 43.8167 124.018 43.9238 124.286 43.8861C124.554 43.8485 124.831 43.7315 125.115 43.5353C125.438 43.3337 125.701 43.121 125.904 42.8973ZM134.585 16.3164C134.289 16.7095 133.815 17.3619 133.162 18.2736C132.542 19.1416 131.914 20.089 131.277 21.1156C130.64 22.1422 130.075 23.1197 129.581 24.0482C129.087 24.9767 128.831 25.6569 128.813 26.0889C129.077 25.7395 129.485 25.1745 130.039 24.3937C130.632 23.6077 131.235 22.7614 131.85 21.8551C132.502 20.9434 133.117 20.037 133.693 19.1361C134.308 18.2297 134.788 17.4789 135.134 16.8837C135.474 16.2501 135.614 15.8594 135.555 15.7117C135.528 15.5202 135.205 15.7218 134.585 16.3164Z" fill="#240D4B"/>
<path d="M175.88 20.3123C174.89 20.7639 173.956 21.2075 173.08 21.643C172.237 22.0348 171.397 22.4457 170.559 22.8758C168.818 23.8233 167.099 24.7873 165.402 25.7678C163.737 26.7045 162.053 27.7807 160.35 28.9963C159.643 29.5251 158.923 30.0949 158.189 30.7057C157.487 31.2728 156.876 31.9249 156.355 32.6619C156.289 32.7492 156.169 32.8638 155.993 33.0056C155.818 33.1474 155.66 33.1306 155.518 32.9553C155.496 32.8021 155.472 32.6298 155.445 32.4384C155.418 32.2469 155.438 32.1075 155.503 32.0202C155.581 31.736 155.702 31.4847 155.866 31.2664C156.069 31.0426 156.253 30.8216 156.417 30.6032C157.251 29.588 158.18 28.6961 159.204 27.9273C160.228 27.1586 161.258 26.4282 162.293 25.7361C165.414 23.7746 168.615 21.9582 171.894 20.2869C175.168 18.5772 178.501 17.1521 181.894 16.0115C183.202 15.5934 184.496 15.2163 185.777 14.8802C187.095 14.5386 188.403 14.394 189.698 14.4461C189.819 14.4683 189.958 14.4877 190.117 14.5045C190.313 14.5159 190.51 14.5273 190.707 14.5386C191.746 14.7051 192.406 15.237 192.688 16.1344C192.971 17.0319 192.742 18.0402 192.001 19.1596C191.584 19.8039 191.107 20.4371 190.569 21.0593C190.032 21.6815 189.492 22.2845 188.949 22.8684C186.954 24.7887 184.875 26.5256 182.712 28.0792C180.548 29.6327 178.355 31.1124 176.132 32.5181C175.266 33.0302 174.404 33.5614 173.544 34.1118C172.679 34.6238 171.836 35.1523 171.014 35.6973C170.757 35.8115 170.505 35.9641 170.259 36.1549C170.05 36.3404 169.859 36.504 169.683 36.6458L169.732 36.9904C170.087 37.0185 170.462 37.044 170.855 37.0667C171.249 37.0895 171.643 37.1123 172.036 37.135C173.677 37.1388 175.276 37.1287 176.835 37.1049C178.432 37.0757 180.036 37.104 181.649 37.1897C182.672 37.2412 183.681 37.3337 184.675 37.4672C185.703 37.5571 186.725 37.7453 187.742 38.032C187.845 38.2126 187.982 38.3497 188.151 38.443C188.315 38.4981 188.479 38.5531 188.643 38.6082C189.249 39.0306 189.578 39.57 189.632 40.2263C189.718 40.839 189.5 41.5138 188.979 42.2508C188.611 42.9663 188.131 43.5804 187.539 44.0931C186.942 44.5675 186.359 45.0009 185.789 45.3933C184.256 46.4288 182.69 47.3713 181.091 48.2207C179.525 49.0265 177.971 49.7721 176.427 50.4576C173.521 51.7251 170.606 52.9352 167.683 54.0878C164.799 55.2351 161.862 56.4287 158.874 57.6687C158.436 57.8865 158.039 58.118 157.683 58.3632C157.327 58.6085 157.025 58.9632 156.778 59.4275C156.318 60.0389 155.887 60.5875 155.487 61.0733C155.125 61.5536 154.708 62.0612 154.236 62.5961C154.193 62.5632 154.152 62.5494 154.114 62.5548C154.114 62.5548 154.092 62.5383 154.048 62.5054C154.208 61.9754 154.406 61.4399 154.642 60.8991C154.873 60.32 155.14 59.7163 155.442 59.0882C153.362 59.849 151.288 60.6481 149.219 61.4855C147.183 62.2793 145.128 63.0757 143.054 63.8749C141.012 64.6303 138.965 65.3475 136.913 66.0264C134.899 66.6999 132.853 67.2803 130.774 67.7678L130.742 67.538C131.317 67.1839 131.878 66.8707 132.425 66.5986C132.929 66.2935 133.455 66.0049 134.002 65.7327C135.661 64.7576 137.361 63.933 139.101 63.2589C140.837 62.5465 142.593 61.8506 144.372 61.1711C146.255 60.3988 148.121 59.6484 149.971 58.9199C151.86 58.186 153.789 57.4658 155.759 56.7594C156.011 56.6068 156.263 56.4543 156.515 56.3018C156.805 56.1438 157.024 55.8983 157.173 55.565C158.699 52.8125 160.228 50.079 161.76 47.3648C163.325 44.6068 164.854 41.8734 166.347 39.1645C166.567 38.7823 166.702 38.3533 166.752 37.8777C166.731 37.4511 166.798 37.0903 166.951 36.7954C167.1 36.4622 167.281 36.222 167.494 36.0748C167.883 35.7859 168.19 35.4694 168.415 35.1254C168.64 34.7814 168.857 34.38 169.066 33.9211C170.143 31.8566 171.2 29.7947 172.238 27.7355C173.309 25.6326 174.378 23.5106 175.443 21.3694C175.504 21.2438 175.545 21.1209 175.567 21.0006C175.622 20.8367 175.727 20.6073 175.88 20.3123ZM159.404 55.1928C159.705 55.1114 159.952 55.0573 160.143 55.0304C160.334 55.0035 160.523 54.9575 160.709 54.8923C163.512 53.7175 166.276 52.5481 169.002 51.384C171.766 50.2146 174.527 49.0261 177.286 47.8184C178.797 47.1765 180.259 46.4635 181.671 45.6793C183.122 44.8897 184.557 43.9852 185.975 42.9658C186.501 42.5405 187.014 42.0194 187.513 41.4027C187.913 40.9169 187.859 40.534 187.351 40.2539C187.22 40.1552 187.073 40.0783 186.909 40.0233C186.745 39.9682 186.6 39.9105 186.475 39.85C185.797 39.7501 185.16 39.6639 184.564 39.5914C184.001 39.4753 183.4 39.3646 182.76 39.2592C180.459 38.997 178.143 38.9124 175.813 39.0056C173.522 39.0933 171.206 39.1455 168.865 39.162C168.548 39.1285 168.324 39.1991 168.192 39.3738C168.061 39.5485 167.896 39.7668 167.699 40.0289C166.474 42.4267 165.222 44.7697 163.942 47.058C162.663 49.3464 161.348 51.6592 159.998 53.9966C159.943 54.1605 159.868 54.3271 159.775 54.4964C159.682 54.6657 159.558 54.8978 159.404 55.1928ZM171.479 33.172C171.731 33.0194 171.895 32.9378 171.972 32.927C172.081 32.8726 172.191 32.8182 172.3 32.7637C172.793 32.3821 173.311 32.036 173.853 31.7255C174.39 31.3768 174.926 31.028 175.463 30.6793C177.254 29.5295 179.02 28.3442 180.762 27.1232C182.542 25.8969 184.265 24.542 185.93 23.0584C186.659 22.4093 187.366 21.7438 188.051 21.0618C188.736 20.3798 189.397 19.6622 190.033 18.909C190.312 18.6745 190.567 18.4044 190.797 18.0987C191.028 17.793 191.075 17.4349 190.939 17.0245C190.804 16.6141 190.561 16.4139 190.211 16.4241C189.894 16.3906 189.601 16.3926 189.333 16.4303C188.644 16.5272 187.955 16.624 187.265 16.7209C186.571 16.7795 185.903 16.8928 185.263 17.0608C184.245 17.321 183.217 17.6413 182.177 18.0217C181.132 18.3639 180.081 18.6677 179.025 18.9332C178.429 19.1342 177.979 19.5488 177.677 20.177C176.858 22.1273 175.926 24.1129 174.883 26.1338C174.372 27.2208 173.825 28.3324 173.243 29.4685C172.699 30.5992 172.111 31.8337 171.479 33.172ZM204.926 37.4911C204.461 37.5174 204.081 37.4536 203.786 37.2999C203.492 37.1461 203.227 36.9295 202.992 36.6501C202.796 36.3653 202.616 36.0586 202.453 35.7302C202.328 35.3963 202.203 35.0625 202.078 34.7286C201.773 34.2248 201.41 34.0025 200.989 34.0617C200.567 34.1209 200.146 34.3168 199.724 34.6494C199.335 34.9384 198.976 35.3012 198.647 35.7379C198.318 36.1746 198.052 36.5049 197.849 36.7286C196.665 38.0274 195.806 39.4171 195.272 40.8978C195.201 41.2203 195.063 41.4934 194.86 41.7171C194.619 41.9462 194.389 42.1152 194.17 42.2241C193.946 42.2947 193.749 42.2833 193.58 42.19C193.372 42.102 193.244 41.8857 193.196 41.5411C193.169 41.3496 193.186 41.1911 193.246 41.0655C193.306 40.9398 193.364 40.7951 193.419 40.6311C193.964 39.227 194.489 37.8256 194.995 36.4268C195.502 35.0281 196.027 33.6267 196.572 32.2226C196.709 31.8127 196.91 31.4332 197.173 31.0838C197.239 30.9964 197.326 30.9256 197.436 30.8711C197.584 30.8113 197.701 30.8143 197.789 30.8801C198.078 30.9956 198.204 31.1928 198.165 31.4716C198.202 31.7396 198.171 32.0758 198.072 32.4802C197.874 33.0157 197.695 33.5484 197.535 34.0785C197.376 34.6086 197.238 35.1551 197.121 35.7181C197.396 35.4453 197.565 35.2652 197.631 35.1779C197.971 34.8177 198.275 34.4821 198.544 34.171C198.846 33.8163 199.153 33.4998 199.465 33.2216C199.871 32.7741 200.355 32.4718 200.919 32.3145C202.03 31.885 202.836 32.2012 203.336 33.2632C203.456 33.5588 203.554 33.8379 203.63 34.1005C203.706 34.3632 203.801 34.6232 203.915 34.8804C204.051 35.2909 204.225 35.5592 204.438 35.6855C204.646 35.7734 204.977 35.766 205.431 35.6631C205.622 35.6362 205.814 35.6093 206.005 35.5824C206.229 35.5118 206.437 35.4631 206.629 35.4362C207.159 35.3225 207.534 35.348 207.752 35.5125C207.971 35.6771 208.022 35.9041 207.907 36.1937C207.786 36.4449 207.471 36.704 206.962 36.9708C206.491 37.2322 205.812 37.4056 204.926 37.4911ZM214.021 34.3387C214.47 34.1975 214.902 34.0782 215.318 33.9807C215.728 33.8449 216.139 33.7092 216.549 33.5734C216.845 33.4538 217.219 33.3425 217.673 33.2396C218.128 33.1368 218.522 33.0228 218.855 32.8978C219.047 32.8709 219.181 32.8521 219.257 32.8413C219.372 32.8252 219.531 32.8419 219.733 32.8916C219.859 32.9521 219.971 33.0535 220.069 33.1959C220.2 33.2946 220.257 33.4232 220.24 33.5818C220.251 33.6584 220.188 33.7648 220.051 33.9012C219.914 34.0376 219.807 34.1112 219.73 34.122C219.358 34.2524 219.005 34.3801 218.671 34.5051C218.37 34.5864 218.031 34.6732 217.654 34.7653C216.948 35.0207 216.239 35.2569 215.528 35.474C214.849 35.6475 214.176 35.8592 213.508 36.1093C213.098 36.245 212.78 36.4849 212.555 36.8289C211.859 37.7077 211.277 38.4337 210.811 39.0068C210.384 39.5745 209.822 40.0244 209.127 40.3564C208.612 40.5849 208.12 40.6931 207.65 40.6811C207.174 40.6308 206.792 40.4112 206.503 40.0223C206.214 39.6334 206.095 39.0644 206.146 38.3154C206.191 37.5281 206.481 36.5308 207.014 35.3235C207.404 34.4877 207.881 33.7178 208.446 33.0136C209.044 32.2658 209.683 31.5318 210.362 30.8115C210.636 30.5387 210.935 30.3015 211.258 30.0999C211.576 29.8601 211.962 29.6887 212.416 29.5858C213.056 29.4178 213.57 29.4627 213.958 29.7206C214.34 29.9402 214.558 30.3781 214.611 31.0344C214.654 31.3408 214.642 31.6743 214.576 32.0351C214.504 32.3575 214.454 32.6964 214.426 33.0518C214.376 33.254 214.307 33.4589 214.219 33.6665C214.164 33.8305 214.098 34.0545 214.021 34.3387ZM208.547 35.4008C208.01 36.2964 207.781 37.0313 207.862 37.6057C207.937 38.1418 208.16 38.4813 208.532 38.6243C208.936 38.7237 209.371 38.6235 209.837 38.3238C210.335 37.9804 210.719 37.3798 210.989 36.5219C210.377 36.608 209.865 36.5822 209.456 36.4446C209.04 36.2686 208.738 35.9207 208.547 35.4008ZM212.897 30.9239C211.616 31.5335 210.731 32.4583 210.241 33.6985C210.186 33.8624 210.169 34.021 210.191 34.1741C210.212 34.3273 210.33 34.467 210.542 34.5933C210.805 34.7907 211.124 34.8434 211.502 34.7513C211.918 34.6538 212.181 34.4411 212.291 34.1133C212.477 33.7747 212.62 33.4032 212.72 32.9987C212.857 32.5889 212.959 32.2036 213.026 31.8429C213.092 31.7555 213.095 31.638 213.035 31.4902C212.975 31.3424 212.929 31.1537 212.897 30.9239ZM233.97 30.4221C232.983 31.7323 232.021 32.9413 231.083 34.0493C230.622 34.6607 230.14 35.2556 229.635 35.8341C229.169 36.4072 228.646 36.9884 228.065 37.5777C227.9 37.796 227.695 38.0006 227.448 38.1915C227.235 38.3386 226.983 38.4912 226.693 38.6491C226.167 38.801 225.735 38.7836 225.397 38.5969C225.096 38.4049 224.947 38.0354 224.948 37.4886C224.982 37.1715 225.012 36.8353 225.041 36.4799C225.063 36.0862 225.111 35.7281 225.182 35.4057C225.232 35.2035 225.263 35.0039 225.274 34.8071C225.285 34.6103 225.272 34.3778 225.235 34.1098C224.933 34.4646 224.615 34.8412 224.281 35.2396C223.979 35.5943 223.677 35.9491 223.376 36.3038C222.504 37.3244 221.6 38.252 220.663 39.0865C220.399 39.4359 219.931 39.7165 219.258 39.9282C218.848 40.064 218.473 40.0385 218.135 39.8518C217.791 39.6268 217.625 39.2792 217.637 38.809C217.643 38.5738 217.649 38.3387 217.655 38.1036C217.661 37.8685 217.689 37.6498 217.738 37.4476C217.953 36.7536 218.184 36.0378 218.432 35.3001C218.674 34.5242 218.92 33.7674 219.167 33.0297C219.58 32.0737 219.975 31.1395 220.355 30.2272C220.729 29.2765 221.122 28.3232 221.534 27.3672C221.617 27.1213 221.724 26.911 221.856 26.7363C222.02 26.518 222.264 26.4447 222.586 26.5165C223.067 26.6051 223.173 27.0784 222.903 27.9363C222.028 30.0505 221.162 32.2222 220.304 34.4513C220.106 34.9868 219.911 35.5414 219.718 36.1151C219.564 36.6834 219.376 37.2955 219.156 37.9512C219.473 37.9847 219.719 37.9306 219.895 37.7888C220.065 37.6087 220.215 37.4313 220.347 37.2567C221.054 36.4544 221.761 35.6522 222.469 34.85C223.171 34.0094 223.872 33.1689 224.574 32.3284C224.876 31.9736 225.161 31.6407 225.43 31.3296C225.698 31.0185 225.964 30.6883 226.227 30.3389C226.26 30.2953 226.293 30.2516 226.326 30.2079C226.392 30.1206 226.439 30.0359 226.466 29.954C227.112 29.5508 227.624 29.4398 228.001 29.6211C228.394 29.9173 228.521 30.407 228.383 31.0903C228.235 31.4235 228.105 31.754 227.995 32.0819C227.885 32.4097 227.778 32.7567 227.673 33.1228C227.502 33.5763 227.335 34.049 227.169 34.5407C227.043 35.0271 226.897 35.5162 226.731 36.008C226.731 36.008 226.758 36.1994 226.812 36.5823C227.053 36.3532 227.261 36.1678 227.437 36.026C227.607 35.8459 227.774 35.6467 227.938 35.4283C228.827 34.2492 229.696 33.0728 230.547 31.899C231.397 30.7252 232.266 29.5488 233.155 28.3697C233.215 28.244 233.273 28.0993 233.328 27.9353C233.421 27.766 233.561 27.6488 233.747 27.5836C233.89 27.4855 234.054 27.4038 234.24 27.3386C234.421 27.2351 234.574 27.2136 234.699 27.274C234.863 27.3291 234.997 27.447 235.101 27.6277C235.237 27.7647 235.297 27.9125 235.28 28.071C235.323 28.3773 235.35 28.7055 235.36 29.0555C235.365 29.3672 235.517 29.6191 235.817 29.8111C236.434 30.3102 237.038 30.5767 237.628 30.6109C238.257 30.6397 238.911 30.5673 239.589 30.3939C239.775 30.3287 239.939 30.3837 240.081 30.559C240.223 30.7344 240.271 30.9423 240.227 31.1828C240.221 31.4179 240.147 31.5845 240.005 31.6826C239.857 31.7424 239.668 31.7885 239.438 31.8208C238.41 32.0044 237.439 32.0432 236.526 31.9372C235.608 31.7929 234.756 31.2879 233.97 30.4221ZM250.152 33.2435C251.094 32.7207 252.17 32.0423 253.381 31.2084C254.586 30.3362 255.648 29.5621 256.568 28.8861C257.143 28.532 257.606 28.3499 257.956 28.3397C258.339 28.2859 258.582 28.3494 258.686 28.53C258.784 28.6724 258.739 28.9129 258.553 29.2516C258.399 29.5465 258.054 29.8683 257.517 30.2171C256.405 30.92 255.274 31.6256 254.125 32.3338C253.007 32.9984 251.871 33.6657 250.716 34.3357C249.922 34.7987 249.142 34.9473 248.377 34.7815C247.64 34.5338 247.28 33.9205 247.299 32.9417C247.321 32.5481 247.391 32.2064 247.506 31.9169C247.616 31.589 247.685 31.2474 247.713 30.892C247.807 30.4493 247.888 30.0476 247.954 29.6868C248.059 29.3207 248.079 29.0446 248.013 28.8585C247.981 28.6288 247.828 28.5136 247.555 28.513C247.32 28.507 246.909 28.6427 246.324 28.9203C245.721 29.3564 245.121 29.8116 244.524 30.286C243.96 30.7167 243.398 31.1666 242.84 31.6356C242.324 32.1375 241.809 32.6394 241.294 33.1413C240.817 33.6379 240.302 34.1398 239.749 34.6471C239.683 34.7344 239.62 34.8409 239.559 34.9666C239.455 35.0593 239.332 35.1547 239.189 35.2528C239.009 35.3563 238.828 35.4598 238.647 35.5633C238.428 35.6721 238.188 35.6278 237.926 35.4304C237.707 35.2658 237.604 35.0852 237.615 34.8883C237.583 34.6586 237.63 34.4372 237.756 34.2242C237.998 33.7217 238.24 33.2192 238.482 32.7166C238.685 32.2195 238.908 31.7196 239.149 31.2171C239.462 30.6655 239.756 30.1166 240.031 29.5704C240.305 29.0242 240.577 28.4588 240.847 27.8744C241.006 27.6177 241.108 27.3691 241.152 27.1286C241.69 26.233 242.133 25.9169 242.483 26.1802C242.86 26.3615 242.823 26.9328 242.372 27.8942C242.163 28.3531 241.974 28.8093 241.803 29.2627C241.627 29.6779 241.413 30.0985 241.161 30.5245C241.067 30.6938 240.892 30.9722 240.634 31.3599C240.376 31.7476 240.154 32.1107 239.967 32.4493C239.775 32.7496 239.684 32.9381 239.695 33.0147C239.667 33.0966 239.854 32.8947 240.254 32.409C241 31.6013 241.789 30.8266 242.622 30.0848C243.487 29.2994 244.367 28.6096 245.259 28.0156C245.615 27.7703 246.012 27.5388 246.45 27.3211C246.921 27.0597 247.351 26.9212 247.739 26.9057C248.16 26.8465 248.524 26.9321 248.829 27.1625C249.173 27.3874 249.427 27.8009 249.589 28.4028C249.752 29.0046 249.718 29.5951 249.487 30.1743C249.25 30.7151 249.039 31.2915 248.851 31.9035C248.686 32.6687 248.682 33.1964 248.84 33.4866C248.992 33.7385 249.43 33.6574 250.152 33.2435Z" fill="#240D4B"/>
</svg>
