<svg width="89" height="86" viewBox="0 0 89 86" fill="none" xmlns="http://www.w3.org/2000/svg">
<path d="M87.1745 47.4341H74.7798C62.2159 47.7259 62.2309 66.8162 74.78 67.1038H87.1745C88.0488 67.1012 88.7568 66.3931 88.7595 65.5188V49.0191C88.7609 48.5983 88.5944 48.1943 88.2969 47.8967C87.9993 47.5992 87.5953 47.4326 87.1745 47.4341ZM77.0939 58.846C76.2186 58.846 75.509 58.1364 75.509 57.261C75.509 56.3857 76.2186 55.676 77.094 55.676C77.9694 55.676 78.679 56.3857 78.679 57.2611C78.679 58.1365 77.9693 58.846 77.0939 58.846Z" fill="#AEE9B6"/>
<path d="M62.195 57.6892C61.9834 54.2139 63.2129 50.8048 65.5941 48.2646C67.9754 45.7244 71.298 44.2774 74.7798 44.2644H85.6686L85.6685 40.4445C85.655 33.8823 80.3433 28.5635 73.7811 28.5413H9.82694C8.07336 28.5205 6.39441 27.8285 5.13553 26.6076C3.25117 24.6948 2.69147 21.8414 3.71361 19.3585C4.73574 16.8756 7.14206 15.2433 9.82694 15.2115H26.184L32.3972 12.0415H9.82694C4.40164 12.0462 0.00472069 16.443 9.53674e-07 21.8683L0 74.0938C0.00858545 80.6642 5.33284 85.9884 11.9033 85.997H73.7813C80.3517 85.9885 85.676 80.6642 85.6846 74.0938V70.2739H74.7798C67.8318 70.2683 62.2008 64.6372 62.195 57.6892Z" fill="#AEE9B6"/>
<path d="M18.3977 25.3713L60.9755 4.63439C61.3826 4.42804 63.2128 2.9574 64.139 4.63439L74.2066 25.8626C76.8453 25.8741 75.3252 25.8694 77.5377 25.8626L64.7943 0.867298C64.3999 0.0888823 63.4496 -0.223145 62.6704 0.169903L40.0526 11.6928C32.5356 15.5179 20.8601 21.5026 13.2188 25.3712L18.3977 25.3713Z" fill="#AEE9B6"/>
</svg>
